<?xml version="1.0" standalone="no"?>
<!DOCTYPE svg PUBLIC "-//W3C//DTD SVG 20010904//EN"
 "http://www.w3.org/TR/2001/REC-SVG-20010904/DTD/svg10.dtd">
<svg version="1.0" xmlns="http://www.w3.org/2000/svg"
 width="400.000000pt" height="175.000000pt" viewBox="0 0 400.000000 175.000000"
 preserveAspectRatio="xMidYMid meet">

<g transform="translate(0.000000,175.000000) scale(0.100000,-0.100000)"
fill="#000000" stroke="none">
<path d="M3091 1328 c-18 -59 -23 -105 -12 -113 6 -3 56 -6 111 -6 80 0 100
-3 100 -14 0 -22 -54 -286 -115 -565 -67 -305 -72 -339 -54 -351 8 -5 44 -9
80 -9 50 0 70 4 81 18 9 9 36 114 62 237 120 569 138 651 145 665 6 12 33 16
119 18 l111 3 10 37 c6 20 12 53 13 72 l3 35 -322 3 -321 2 -11 -32z m631 17
c3 -3 0 -29 -7 -58 l-11 -52 -117 -3 c-111 -3 -117 -4 -122 -25 -4 -19 -60
-284 -157 -737 -17 -80 -35 -153 -40 -163 -7 -13 -22 -17 -73 -17 -35 0 -66 3
-68 8 -2 4 20 115 48 247 43 196 122 562 143 663 4 22 3 22 -112 22 l-117 0 7
38 c4 20 11 47 15 60 l9 22 298 0 c164 0 301 -2 304 -5z"/>
<path d="M255 1193 c-16 -2 -34 -8 -38 -12 -8 -8 -51 -202 -156 -708 -28 -129
-35 -185 -28 -192 18 -18 152 -14 168 5 7 8 22 59 33 112 l21 97 85 5 c47 3
91 9 98 13 30 20 35 37 133 505 22 108 24 146 7 160 -14 10 -273 23 -323 15z
m305 -28 c10 -12 3 -59 -35 -247 -75 -375 -78 -384 -118 -393 -12 -3 -56 -6
-97 -7 l-74 -3 -22 -101 c-11 -56 -24 -106 -28 -113 -7 -11 -128 -16 -138 -6
-3 4 10 79 29 168 18 89 58 279 88 421 30 143 57 268 61 278 5 16 20 18 163
18 128 0 161 -3 171 -15z"/>
<path d="M311 871 c-22 -104 -41 -199 -41 -210 0 -17 6 -21 35 -21 19 0 35 4
35 8 0 5 18 94 40 198 22 104 40 195 40 202 0 7 -13 12 -34 12 l-33 0 -42
-189z m79 142 c0 -31 -66 -342 -74 -350 -27 -27 -16 56 39 300 17 76 35 102
35 50z"/>
<path d="M717 1188 c-10 -9 -28 -71 -53 -188 -20 -96 -56 -265 -80 -375 -66
-308 -70 -335 -53 -346 23 -14 146 -11 162 5 15 15 25 60 92 381 24 116 58
277 75 359 31 143 32 150 14 163 -23 17 -135 17 -157 1z m146 -15 c3 -5 -8
-69 -24 -143 -17 -74 -57 -265 -90 -425 -34 -159 -66 -296 -71 -302 -6 -8 -35
-13 -74 -13 -57 0 -64 2 -64 19 0 11 18 102 40 203 22 101 60 282 85 403 25
121 50 230 55 243 9 20 17 22 74 22 36 0 67 -3 69 -7z"/>
<path d="M1014 1190 c-18 -7 -27 -36 -63 -207 -24 -109 -45 -208 -48 -219 -2
-12 2 -28 10 -35 13 -12 12 -17 -8 -41 -14 -16 -30 -58 -40 -105 -9 -43 -27
-125 -40 -183 -16 -74 -20 -109 -13 -117 16 -19 152 -17 172 2 8 8 20 41 26
73 39 200 55 265 67 269 8 3 16 4 18 1 3 -2 -11 -73 -30 -158 -19 -84 -35
-161 -35 -171 0 -23 20 -29 101 -29 60 0 70 3 83 22 14 24 76 322 76 370 0 15
-5 30 -10 33 -6 4 -1 18 14 36 30 35 27 24 70 237 44 210 44 220 11 228 -30 7
-142 1 -151 -9 -4 -4 -26 -93 -50 -198 -23 -105 -45 -193 -47 -196 -3 -3 -10
-2 -15 1 -9 5 -1 47 49 280 20 96 20 100 3 113 -20 14 -117 17 -150 3z m140
-18 c3 -5 1 -25 -5 -45 -13 -49 -69 -324 -69 -342 0 -10 11 -15 34 -15 l33 0
44 203 45 202 72 3 c40 2 72 -1 72 -5 0 -4 -18 -95 -40 -202 -40 -197 -56
-241 -89 -241 -10 0 -24 -6 -30 -14 -9 -11 -6 -16 19 -24 16 -6 30 -18 30 -27
0 -23 -68 -354 -75 -365 -7 -12 -145 -14 -145 -2 0 4 16 80 35 169 19 90 35
167 35 173 0 7 -15 10 -37 8 -42 -3 -38 7 -84 -228 -13 -63 -28 -118 -33 -122
-6 -4 -39 -8 -73 -8 -49 0 -63 3 -63 15 0 34 61 323 75 353 8 17 21 33 30 33
30 3 34 4 45 15 9 9 5 14 -18 19 -17 3 -33 12 -35 19 -6 14 74 404 86 424 9
14 133 17 141 4z"/>
<path d="M1533 1193 c-31 -6 -12 67 -170 -687 -37 -179 -43 -220 -32 -227 8
-5 87 -9 176 -9 183 0 188 2 198 74 12 79 10 81 -83 84 -45 2 -82 7 -82 12 0
8 13 66 45 208 5 20 11 22 65 22 68 0 72 4 89 90 12 67 1 80 -69 80 l-47 0 22
98 22 97 85 3 c53 2 90 8 96 15 5 7 14 37 20 67 15 78 11 80 -167 79 -80 -1
-156 -4 -168 -6z m319 -38 c-2 -11 -8 -37 -13 -57 l-10 -38 -89 0 -89 0 -10
-37 c-15 -56 -41 -182 -41 -199 0 -13 10 -14 54 -9 68 9 77 4 66 -38 -4 -17
-11 -44 -14 -59 -6 -27 -9 -28 -71 -28 -59 0 -65 -2 -70 -22 -3 -13 -14 -66
-25 -118 -11 -52 -22 -105 -25 -117 -5 -23 -4 -23 86 -23 l91 0 -7 -48 c-4
-26 -12 -53 -17 -60 -13 -15 -328 -18 -328 -2 0 5 16 85 36 177 19 93 60 284
89 426 30 142 57 263 61 268 3 6 73 8 167 7 156 -3 162 -4 159 -23z"/>
<path d="M1995 1187 c-18 -14 -22 -28 -155 -667 -28 -135 -60 -283 -71 -329
-15 -63 -17 -87 -8 -97 9 -11 52 -14 203 -14 105 0 197 4 205 9 16 10 43 119
35 144 -5 15 -19 17 -113 17 -59 0 -110 2 -113 5 -3 3 6 54 19 113 14 59 49
222 78 362 30 140 63 298 74 350 19 88 19 96 4 108 -23 16 -134 16 -158 -1z
m147 -27 c-2 -8 -37 -175 -78 -370 -41 -195 -84 -394 -95 -442 -10 -48 -19
-95 -19 -103 0 -13 20 -15 121 -15 101 0 120 -2 116 -14 -3 -8 -9 -32 -13 -53
-4 -21 -11 -44 -17 -51 -7 -9 -59 -12 -199 -12 -176 0 -189 1 -184 18 3 9 28
125 55 257 108 518 161 769 167 787 5 17 14 18 77 16 58 -2 71 -6 69 -18z"/>
<path d="M2330 1193 c-40 -8 -68 -42 -80 -97 -6 -28 -36 -166 -65 -306 -30
-140 -66 -308 -80 -374 -19 -90 -23 -122 -14 -132 8 -10 35 -14 85 -14 93 0
94 1 130 183 19 95 31 137 40 137 18 0 19 7 -16 -154 -24 -107 -28 -141 -19
-152 18 -22 151 -19 171 4 9 9 28 78 43 152 15 74 51 245 80 380 67 310 70
330 52 355 -14 18 -28 20 -159 22 -78 1 -154 -1 -168 -4z m304 -26 c16 -12 14
-24 -24 -207 -23 -107 -62 -296 -88 -420 -26 -124 -51 -231 -55 -237 -9 -14
-132 -19 -140 -5 -4 6 44 245 59 295 4 14 -1 17 -34 17 l-39 0 -28 -142 c-15
-79 -32 -151 -37 -160 -7 -15 -22 -18 -78 -18 -39 0 -70 2 -70 5 0 4 15 79 34
168 19 89 58 270 86 402 57 269 63 288 93 303 33 16 299 15 321 -1z"/>
<path d="M2410 1058 c-1 -2 -16 -75 -34 -163 -19 -88 -30 -164 -26 -169 5 -4
20 -4 36 1 25 8 29 17 60 158 19 83 34 156 34 163 0 7 -14 12 -35 12 -19 0
-35 -1 -35 -2z m40 -35 c0 -10 -12 -75 -27 -145 -18 -86 -31 -128 -40 -128
-16 0 -18 -18 17 143 17 76 30 140 30 142 0 3 5 5 10 5 6 0 10 -8 10 -17z"/>
<path d="M2792 1182 c-11 -11 -22 -39 -26 -63 -4 -24 -31 -156 -61 -294 -110
-512 -113 -529 -103 -542 16 -19 152 -17 168 2 7 8 30 94 51 192 22 97 41 179
44 181 19 20 15 -32 -16 -185 -30 -149 -33 -178 -21 -189 18 -19 146 -19 164
0 19 19 92 375 85 417 -3 25 0 40 14 55 13 14 30 75 54 194 19 95 35 184 35
196 0 44 -31 53 -207 54 -146 1 -164 -1 -181 -18z m353 -16 c18 -13 17 -19
-19 -192 -20 -98 -43 -189 -51 -201 -8 -12 -27 -23 -42 -25 -37 -4 -40 -24 -3
-31 25 -5 30 -11 30 -34 -1 -35 -72 -364 -83 -380 -5 -8 -32 -13 -73 -13 -51
0 -64 3 -64 15 0 9 16 94 35 189 19 96 35 177 35 180 0 3 -16 6 -35 6 -19 0
-35 -2 -35 -5 0 -17 -72 -343 -80 -362 -9 -21 -17 -23 -73 -23 -35 0 -66 2
-69 5 -5 5 12 91 73 372 21 100 53 248 69 330 17 81 33 156 36 166 5 15 22 17
168 17 121 0 167 -3 181 -14z"/>
<path d="M2907 993 c-32 -141 -41 -193 -35 -199 4 -3 20 -3 37 1 29 6 30 10
56 118 14 62 28 120 31 130 4 14 -1 17 -34 17 l-40 0 -15 -67z m63 40 c-1 -38
-49 -208 -60 -211 -10 -4 -11 5 -6 39 17 106 38 179 52 179 8 0 14 -3 14 -7z"/>
<path d="M3592 1187 c-6 -7 -34 -121 -62 -252 -29 -132 -71 -330 -95 -440 -32
-145 -41 -203 -33 -213 8 -9 52 -12 182 -10 l171 3 12 26 c7 15 14 48 15 75
l3 49 -84 3 -83 3 6 47 c3 26 14 79 24 117 l17 70 65 5 65 5 12 45 c17 66 16
107 -3 114 -9 3 -36 6 -60 6 -39 0 -45 3 -40 18 3 9 12 50 21 91 8 40 18 77
21 82 3 5 43 9 90 9 83 0 85 0 95 28 6 15 13 48 16 73 5 42 3 47 -18 52 -13 4
-92 7 -175 7 -112 0 -154 -3 -162 -13z m338 -17 c0 -5 -5 -32 -11 -60 l-11
-50 -93 0 -94 0 -11 -57 c-7 -32 -18 -86 -25 -120 -7 -35 -10 -64 -6 -65 3 -1
31 -2 61 -2 l55 -1 -2 -35 c-1 -20 -7 -48 -12 -63 -10 -25 -14 -27 -74 -27
l-64 0 -27 -127 c-14 -71 -26 -134 -26 -140 0 -10 25 -13 90 -13 50 0 90 -3
90 -7 0 -5 -6 -30 -13 -58 l-13 -50 -165 0 c-140 0 -164 2 -162 15 2 8 27 132
57 275 30 143 70 330 87 415 18 85 37 161 42 168 12 15 327 18 327 2z"/>
</g>
</svg>
